<mxfile host="app.diagrams.net" agent="Mozilla/5.0 (X11; Linux x86_64) AppleWebKit/537.36 (KHTML, like Gecko) Chrome/140.0.0.0 Safari/537.36" version="28.2.5">
  <diagram name="Page-1" id="qlEuCMVYA-lRBIzqA7xv">
    <mxGraphModel dx="1368" dy="799" grid="0" gridSize="10" guides="1" tooltips="1" connect="1" arrows="1" fold="1" page="1" pageScale="1" pageWidth="850" pageHeight="1100" math="0" shadow="0">
      <root>
        <mxCell id="0" />
        <mxCell id="1" parent="0" />
        <mxCell id="nMbYZ5Fk1xVt0lKB5L0--2" value="" style="rounded=0;whiteSpace=wrap;html=1;" parent="1" vertex="1">
          <mxGeometry x="120" y="160" width="570" height="320" as="geometry" />
        </mxCell>
        <mxCell id="nMbYZ5Fk1xVt0lKB5L0--3" value="" style="rounded=1;whiteSpace=wrap;html=1;" parent="1" vertex="1">
          <mxGeometry x="210" y="140" width="480" height="20" as="geometry" />
        </mxCell>
        <mxCell id="nMbYZ5Fk1xVt0lKB5L0--4" value="" style="rounded=0;whiteSpace=wrap;html=1;" parent="1" vertex="1">
          <mxGeometry x="90" y="160" width="120" height="280" as="geometry" />
        </mxCell>
        <mxCell id="nMbYZ5Fk1xVt0lKB5L0--6" value="1" style="rounded=1;whiteSpace=wrap;html=1;arcSize=0;" parent="1" vertex="1">
          <mxGeometry x="210" y="140" width="40" height="20" as="geometry" />
        </mxCell>
        <mxCell id="nMbYZ5Fk1xVt0lKB5L0--9" value="2" style="rounded=1;whiteSpace=wrap;html=1;arcSize=0;" parent="1" vertex="1">
          <mxGeometry x="250" y="140" width="40" height="20" as="geometry" />
        </mxCell>
        <mxCell id="nMbYZ5Fk1xVt0lKB5L0--10" value="3" style="rounded=1;whiteSpace=wrap;html=1;arcSize=0;" parent="1" vertex="1">
          <mxGeometry x="290" y="140" width="40" height="20" as="geometry" />
        </mxCell>
        <mxCell id="nMbYZ5Fk1xVt0lKB5L0--11" value="4" style="rounded=1;whiteSpace=wrap;html=1;arcSize=0;" parent="1" vertex="1">
          <mxGeometry x="330" y="140" width="40" height="20" as="geometry" />
        </mxCell>
        <mxCell id="nMbYZ5Fk1xVt0lKB5L0--12" value="5" style="rounded=1;whiteSpace=wrap;html=1;arcSize=0;" parent="1" vertex="1">
          <mxGeometry x="370" y="140" width="40" height="20" as="geometry" />
        </mxCell>
        <mxCell id="nMbYZ5Fk1xVt0lKB5L0--13" value="6" style="rounded=1;whiteSpace=wrap;html=1;arcSize=0;" parent="1" vertex="1">
          <mxGeometry x="410" y="140" width="40" height="20" as="geometry" />
        </mxCell>
        <mxCell id="nMbYZ5Fk1xVt0lKB5L0--14" value="7" style="rounded=1;whiteSpace=wrap;html=1;arcSize=0;" parent="1" vertex="1">
          <mxGeometry x="450" y="140" width="40" height="20" as="geometry" />
        </mxCell>
        <mxCell id="nMbYZ5Fk1xVt0lKB5L0--15" value="9" style="rounded=1;whiteSpace=wrap;html=1;arcSize=0;" parent="1" vertex="1">
          <mxGeometry x="530" y="140" width="40" height="20" as="geometry" />
        </mxCell>
        <mxCell id="nMbYZ5Fk1xVt0lKB5L0--16" value="8" style="rounded=1;whiteSpace=wrap;html=1;arcSize=0;" parent="1" vertex="1">
          <mxGeometry x="490" y="140" width="40" height="20" as="geometry" />
        </mxCell>
        <mxCell id="nMbYZ5Fk1xVt0lKB5L0--18" value="10" style="rounded=1;whiteSpace=wrap;html=1;arcSize=0;" parent="1" vertex="1">
          <mxGeometry x="570" y="140" width="40" height="20" as="geometry" />
        </mxCell>
        <mxCell id="nMbYZ5Fk1xVt0lKB5L0--19" value="11" style="rounded=1;whiteSpace=wrap;html=1;arcSize=0;" parent="1" vertex="1">
          <mxGeometry x="610" y="140" width="40" height="20" as="geometry" />
        </mxCell>
        <mxCell id="nMbYZ5Fk1xVt0lKB5L0--21" value="12" style="rounded=1;whiteSpace=wrap;html=1;arcSize=0;" parent="1" vertex="1">
          <mxGeometry x="650" y="140" width="40" height="20" as="geometry" />
        </mxCell>
        <mxCell id="nMbYZ5Fk1xVt0lKB5L0--24" value="&lt;font style=&quot;font-size: 10px;&quot;&gt;Decisión del tema&lt;/font&gt;" style="rounded=0;whiteSpace=wrap;html=1;fillColor=#eeeeee;strokeColor=#36393d;" parent="1" vertex="1">
          <mxGeometry x="90" y="160" width="120" height="40" as="geometry" />
        </mxCell>
        <mxCell id="nMbYZ5Fk1xVt0lKB5L0--26" value="Requisitos&lt;div&gt;Planificación&lt;/div&gt;" style="rounded=0;whiteSpace=wrap;html=1;fillColor=#eeeeee;strokeColor=#36393d;" parent="1" vertex="1">
          <mxGeometry x="90" y="240" width="120" height="40" as="geometry" />
        </mxCell>
        <mxCell id="nMbYZ5Fk1xVt0lKB5L0--27" value="Diseño" style="rounded=0;whiteSpace=wrap;html=1;fillColor=#eeeeee;strokeColor=#36393d;" parent="1" vertex="1">
          <mxGeometry x="90" y="280" width="120" height="40" as="geometry" />
        </mxCell>
        <mxCell id="nMbYZ5Fk1xVt0lKB5L0--28" value="Primer Prototipado" style="rounded=0;whiteSpace=wrap;html=1;fillColor=#eeeeee;strokeColor=#36393d;" parent="1" vertex="1">
          <mxGeometry x="90" y="320" width="120" height="40" as="geometry" />
        </mxCell>
        <mxCell id="nMbYZ5Fk1xVt0lKB5L0--29" value="Pruebas/Desarrollo final" style="rounded=0;whiteSpace=wrap;html=1;fillColor=#eeeeee;strokeColor=#36393d;" parent="1" vertex="1">
          <mxGeometry x="90" y="360" width="120" height="40" as="geometry" />
        </mxCell>
        <mxCell id="nMbYZ5Fk1xVt0lKB5L0--30" value="Memoria" style="rounded=0;whiteSpace=wrap;html=1;fillColor=#eeeeee;strokeColor=#36393d;" parent="1" vertex="1">
          <mxGeometry x="90" y="400" width="120" height="40" as="geometry" />
        </mxCell>
        <mxCell id="nMbYZ5Fk1xVt0lKB5L0--31" value="Defensa" style="rounded=0;whiteSpace=wrap;html=1;fillColor=#eeeeee;strokeColor=#36393d;" parent="1" vertex="1">
          <mxGeometry x="90" y="440" width="120" height="40" as="geometry" />
        </mxCell>
        <mxCell id="nMbYZ5Fk1xVt0lKB5L0--32" value="" style="rounded=0;whiteSpace=wrap;html=1;" parent="1" vertex="1">
          <mxGeometry x="210" y="160" width="480" height="40" as="geometry" />
        </mxCell>
        <mxCell id="nMbYZ5Fk1xVt0lKB5L0--33" value="" style="rounded=0;whiteSpace=wrap;html=1;" parent="1" vertex="1">
          <mxGeometry x="210" y="200" width="480" height="40" as="geometry" />
        </mxCell>
        <mxCell id="nMbYZ5Fk1xVt0lKB5L0--34" value="" style="rounded=0;whiteSpace=wrap;html=1;" parent="1" vertex="1">
          <mxGeometry x="210" y="240" width="480" height="40" as="geometry" />
        </mxCell>
        <mxCell id="nMbYZ5Fk1xVt0lKB5L0--35" value="" style="rounded=0;whiteSpace=wrap;html=1;" parent="1" vertex="1">
          <mxGeometry x="210" y="280" width="480" height="40" as="geometry" />
        </mxCell>
        <mxCell id="nMbYZ5Fk1xVt0lKB5L0--36" value="" style="rounded=0;whiteSpace=wrap;html=1;" parent="1" vertex="1">
          <mxGeometry x="210" y="320" width="480" height="40" as="geometry" />
        </mxCell>
        <mxCell id="nMbYZ5Fk1xVt0lKB5L0--37" value="" style="rounded=0;whiteSpace=wrap;html=1;" parent="1" vertex="1">
          <mxGeometry x="210" y="360" width="480" height="40" as="geometry" />
        </mxCell>
        <mxCell id="nMbYZ5Fk1xVt0lKB5L0--38" value="" style="rounded=0;whiteSpace=wrap;html=1;" parent="1" vertex="1">
          <mxGeometry x="210" y="440" width="480" height="40" as="geometry" />
        </mxCell>
        <mxCell id="nMbYZ5Fk1xVt0lKB5L0--41" value="" style="rounded=0;whiteSpace=wrap;html=1;" parent="1" vertex="1">
          <mxGeometry x="250" y="200" width="279" height="40" as="geometry" />
        </mxCell>
        <mxCell id="nMbYZ5Fk1xVt0lKB5L0--42" value="&lt;font style=&quot;font-size: 14px;&quot;&gt;Planificación por semanas de &quot;Pierrot&quot;&lt;/font&gt;" style="text;html=1;align=center;verticalAlign=middle;resizable=0;points=[];autosize=1;strokeColor=none;fillColor=none;" parent="1" vertex="1">
          <mxGeometry x="330" y="60" width="260" height="30" as="geometry" />
        </mxCell>
        <mxCell id="nMbYZ5Fk1xVt0lKB5L0--43" value="" style="rounded=0;whiteSpace=wrap;html=1;" parent="1" vertex="1">
          <mxGeometry x="210" y="160" width="40" height="40" as="geometry" />
        </mxCell>
        <mxCell id="nMbYZ5Fk1xVt0lKB5L0--45" value="" style="rounded=0;whiteSpace=wrap;html=1;strokeColor=#000000;fillColor=#000000;" parent="1" vertex="1">
          <mxGeometry x="210" y="175" width="40" height="10" as="geometry" />
        </mxCell>
        <mxCell id="nMbYZ5Fk1xVt0lKB5L0--48" value="" style="rounded=0;whiteSpace=wrap;html=1;fillColor=#000000;" parent="1" vertex="1">
          <mxGeometry x="250" y="215" width="279" height="10" as="geometry" />
        </mxCell>
        <mxCell id="nMbYZ5Fk1xVt0lKB5L0--50" value="Autoformación" style="rounded=0;whiteSpace=wrap;html=1;fillColor=#eeeeee;strokeColor=#36393d;" parent="1" vertex="1">
          <mxGeometry x="90" y="200" width="120" height="40" as="geometry" />
        </mxCell>
        <mxCell id="nMbYZ5Fk1xVt0lKB5L0--51" value="" style="rounded=0;whiteSpace=wrap;html=1;" parent="1" vertex="1">
          <mxGeometry x="250" y="240" width="40" height="40" as="geometry" />
        </mxCell>
        <mxCell id="nMbYZ5Fk1xVt0lKB5L0--52" value="" style="rounded=0;whiteSpace=wrap;html=1;fillColor=#000000;" parent="1" vertex="1">
          <mxGeometry x="250" y="255" width="40" height="10" as="geometry" />
        </mxCell>
        <mxCell id="nMbYZ5Fk1xVt0lKB5L0--53" value="" style="rounded=0;whiteSpace=wrap;html=1;" parent="1" vertex="1">
          <mxGeometry x="290" y="280" width="120" height="40" as="geometry" />
        </mxCell>
        <mxCell id="nMbYZ5Fk1xVt0lKB5L0--54" value="" style="rounded=0;whiteSpace=wrap;html=1;fillColor=#000000;" parent="1" vertex="1">
          <mxGeometry x="290" y="295" width="120" height="10" as="geometry" />
        </mxCell>
        <mxCell id="nMbYZ5Fk1xVt0lKB5L0--55" value="" style="rounded=0;whiteSpace=wrap;html=1;" parent="1" vertex="1">
          <mxGeometry x="410" y="320" width="80" height="40" as="geometry" />
        </mxCell>
        <mxCell id="nMbYZ5Fk1xVt0lKB5L0--56" value="" style="rounded=0;whiteSpace=wrap;html=1;fillColor=#000000;" parent="1" vertex="1">
          <mxGeometry x="410" y="335" width="80" height="10" as="geometry" />
        </mxCell>
        <mxCell id="nMbYZ5Fk1xVt0lKB5L0--57" value="" style="rounded=0;whiteSpace=wrap;html=1;" parent="1" vertex="1">
          <mxGeometry x="490" y="360" width="120" height="40" as="geometry" />
        </mxCell>
        <mxCell id="nMbYZ5Fk1xVt0lKB5L0--60" value="" style="rounded=0;whiteSpace=wrap;html=1;fillColor=#000000;" parent="1" vertex="1">
          <mxGeometry x="490" y="375" width="120" height="10" as="geometry" />
        </mxCell>
        <mxCell id="nMbYZ5Fk1xVt0lKB5L0--61" value="" style="rounded=0;whiteSpace=wrap;html=1;" parent="1" vertex="1">
          <mxGeometry x="250" y="400" width="440" height="40" as="geometry" />
        </mxCell>
        <mxCell id="nMbYZ5Fk1xVt0lKB5L0--62" value="" style="rounded=0;whiteSpace=wrap;html=1;fillColor=#000000;" parent="1" vertex="1">
          <mxGeometry x="250" y="415" width="440" height="10" as="geometry" />
        </mxCell>
        <mxCell id="nMbYZ5Fk1xVt0lKB5L0--63" value="" style="rounded=0;whiteSpace=wrap;html=1;" parent="1" vertex="1">
          <mxGeometry x="530" y="440" width="80" height="40" as="geometry" />
        </mxCell>
        <mxCell id="nMbYZ5Fk1xVt0lKB5L0--65" value="" style="rounded=0;whiteSpace=wrap;html=1;strokeColor=#000000;fillColor=#000000;" parent="1" vertex="1">
          <mxGeometry x="530" y="455" width="80" height="10" as="geometry" />
        </mxCell>
      </root>
    </mxGraphModel>
  </diagram>
</mxfile>
